# xmcd
#
# Track frame offsets:
#	150
#	19690
#	41800
#	55257
#	71753
#	92436
#	110127
#	125879
#	146367
#	180515
#	196467
#	225886
#	253957
#
# Disc length: 3818 seconds
# Revision: 0
# Processed by: cddbd v1.5.2PL0 Copyright (c) Steve Scherf et al.
# Submitted via: dBpowerAMP V12.0
#
DISCID=b90ee80d
DTITLE=Jeff Strahan - Blue 'Til I Die
DYEAR=2012
DGENRE=Blues
TTITLE0=Good Outweighs Bad
TTITLE1=River's Gonna Rise
TTITLE2=She Only Hates Me
TTITLE3=Betty Sue
TTITLE4=Less Is More
TTITLE5=U-Turns
TTITLE6=Do Me
TTITLE7=Mayhem
TTITLE8=Sancho
TTITLE9=Shine Her Up
TTITLE10=Wishing Bone
TTITLE11=Gonna Be Blue
TTITLE12=Liner Notes
EXTD=
EXTT0=
EXTT1=
EXTT2=
EXTT3=
EXTT4=
EXTT5=
EXTT6=
EXTT7=
EXTT8=
EXTT9=
EXTT10=
EXTT11=
EXTT12=
PLAYORDER=
